<?xml version="1.0" encoding="UTF-8" standalone="no"?>
<!DOCTYPE svg PUBLIC "-//W3C//DTD SVG 1.1//EN"
 "http://www.w3.org/Graphics/SVG/1.1/DTD/svg11.dtd">
<!-- Generated by graphviz version 10.0.1 (20240210.2158)
 -->
<!-- Title: Messis Pages: 1 -->
<svg width="132pt" height="864pt"
 viewBox="0.00 0.00 131.80 864.00" xmlns="http://www.w3.org/2000/svg" xmlns:xlink="http://www.w3.org/1999/xlink">
<g id="graph0" class="graph" transform="scale(0.636699 0.636699) rotate(0) translate(4 1353)">
<title>Messis</title>
<polygon fill="white" stroke="none" points="-4,4 -4,-1353 203,-1353 203,4 -4,4"/>
<!-- 0 -->
<g id="node1" class="node">
<title>0</title>
<polygon fill="lightyellow" stroke="none" points="173.62,-1349 25.38,-1349 25.38,-1316.5 173.62,-1316.5 173.62,-1349"/>
<polygon fill="none" stroke="black" points="25.38,-1316.5 25.38,-1349 86.38,-1349 86.38,-1316.5 25.38,-1316.5"/>
<text text-anchor="start" x="30.38" y="-1334.5" font-family="Linux libertine" font-size="10.00">input&#45;tensor</text>
<text text-anchor="start" x="39.75" y="-1323.25" font-family="Linux libertine" font-size="10.00">depth:0</text>
<polygon fill="none" stroke="black" points="86.38,-1316.5 86.38,-1349 173.62,-1349 173.62,-1316.5 86.38,-1316.5"/>
<text text-anchor="start" x="91.38" y="-1328.88" font-family="Linux libertine" font-size="10.00">(1, 6, 3, 224, 224)</text>
</g>
<!-- 1 -->
<g id="node2" class="node">
<title>1</title>
<polygon fill="#c1ffc1" stroke="none" points="199,-1280.5 0,-1280.5 0,-1238.5 199,-1238.5 199,-1280.5"/>
<polygon fill="none" stroke="black" points="0,-1238.5 0,-1280.5 66,-1280.5 66,-1238.5 0,-1238.5"/>
<text text-anchor="start" x="4.88" y="-1261.25" font-family="Linux libertine" font-size="10.00">PatchEmbed</text>
<text text-anchor="start" x="16.88" y="-1250" font-family="Linux libertine" font-size="10.00">depth:1</text>
<polygon fill="none" stroke="black" points="66,-1259.5 66,-1280.5 109,-1280.5 109,-1259.5 66,-1259.5"/>
<text text-anchor="start" x="75.5" y="-1266" font-family="Linux libertine" font-size="10.00">input:</text>
<polygon fill="none" stroke="black" points="109,-1259.5 109,-1280.5 199,-1280.5 199,-1259.5 109,-1259.5"/>
<text text-anchor="start" x="113.88" y="-1266" font-family="Linux libertine" font-size="10.00">(1, 6, 3, 224, 224) </text>
<polygon fill="none" stroke="black" points="66,-1238.5 66,-1259.5 109,-1259.5 109,-1238.5 66,-1238.5"/>
<text text-anchor="start" x="71" y="-1245" font-family="Linux libertine" font-size="10.00">output: </text>
<polygon fill="none" stroke="black" points="109,-1238.5 109,-1259.5 199,-1259.5 199,-1238.5 109,-1238.5"/>
<text text-anchor="start" x="125.12" y="-1245" font-family="Linux libertine" font-size="10.00">(1, 588, 768) </text>
</g>
<!-- 0&#45;&gt;1 -->
<g id="edge1" class="edge">
<title>0&#45;&gt;1</title>
<path fill="none" stroke="black" d="M99.5,-1316.64C99.5,-1309.39 99.5,-1300.43 99.5,-1291.81"/>
<polygon fill="black" stroke="black" points="103,-1291.97 99.5,-1281.97 96,-1291.97 103,-1291.97"/>
</g>
<!-- 2 -->
<g id="node3" class="node">
<title>2</title>
<polygon fill="aliceblue" stroke="none" points="175.5,-1202.5 23.5,-1202.5 23.5,-1160.5 175.5,-1160.5 175.5,-1202.5"/>
<polygon fill="none" stroke="black" points="23.5,-1160.5 23.5,-1202.5 65.5,-1202.5 65.5,-1160.5 23.5,-1160.5"/>
<text text-anchor="start" x="36.62" y="-1183.25" font-family="Linux libertine" font-size="10.00">add</text>
<text text-anchor="start" x="28.38" y="-1172" font-family="Linux libertine" font-size="10.00">depth:1</text>
<polygon fill="none" stroke="black" points="65.5,-1181.5 65.5,-1202.5 108.5,-1202.5 108.5,-1181.5 65.5,-1181.5"/>
<text text-anchor="start" x="75" y="-1188" font-family="Linux libertine" font-size="10.00">input:</text>
<polygon fill="none" stroke="black" points="108.5,-1181.5 108.5,-1202.5 175.5,-1202.5 175.5,-1181.5 108.5,-1181.5"/>
<text text-anchor="start" x="113.12" y="-1188" font-family="Linux libertine" font-size="10.00">(1, 588, 768) </text>
<polygon fill="none" stroke="black" points="65.5,-1160.5 65.5,-1181.5 108.5,-1181.5 108.5,-1160.5 65.5,-1160.5"/>
<text text-anchor="start" x="70.5" y="-1167" font-family="Linux libertine" font-size="10.00">output: </text>
<polygon fill="none" stroke="black" points="108.5,-1160.5 108.5,-1181.5 175.5,-1181.5 175.5,-1160.5 108.5,-1160.5"/>
<text text-anchor="start" x="113.12" y="-1167" font-family="Linux libertine" font-size="10.00">(1, 588, 768) </text>
</g>
<!-- 1&#45;&gt;2 -->
<g id="edge2" class="edge">
<title>1&#45;&gt;2</title>
<path fill="none" stroke="black" d="M99.5,-1238.53C99.5,-1230.94 99.5,-1222.1 99.5,-1213.71"/>
<polygon fill="black" stroke="black" points="103,-1213.85 99.5,-1203.85 96,-1213.85 103,-1213.85"/>
</g>
<!-- 3 -->
<g id="node4" class="node">
<title>3</title>
<polygon fill="aliceblue" stroke="none" points="175.5,-1124.5 23.5,-1124.5 23.5,-1082.5 175.5,-1082.5 175.5,-1124.5"/>
<polygon fill="none" stroke="black" points="23.5,-1082.5 23.5,-1124.5 65.5,-1124.5 65.5,-1082.5 23.5,-1082.5"/>
<text text-anchor="start" x="37.75" y="-1105.25" font-family="Linux libertine" font-size="10.00">cat</text>
<text text-anchor="start" x="28.38" y="-1094" font-family="Linux libertine" font-size="10.00">depth:1</text>
<polygon fill="none" stroke="black" points="65.5,-1103.5 65.5,-1124.5 108.5,-1124.5 108.5,-1103.5 65.5,-1103.5"/>
<text text-anchor="start" x="75" y="-1110" font-family="Linux libertine" font-size="10.00">input:</text>
<polygon fill="none" stroke="black" points="108.5,-1103.5 108.5,-1124.5 175.5,-1124.5 175.5,-1103.5 108.5,-1103.5"/>
<text text-anchor="start" x="113.12" y="-1110" font-family="Linux libertine" font-size="10.00">(1, 588, 768) </text>
<polygon fill="none" stroke="black" points="65.5,-1082.5 65.5,-1103.5 108.5,-1103.5 108.5,-1082.5 65.5,-1082.5"/>
<text text-anchor="start" x="70.5" y="-1089" font-family="Linux libertine" font-size="10.00">output: </text>
<polygon fill="none" stroke="black" points="108.5,-1082.5 108.5,-1103.5 175.5,-1103.5 175.5,-1082.5 108.5,-1082.5"/>
<text text-anchor="start" x="113.12" y="-1089" font-family="Linux libertine" font-size="10.00">(1, 589, 768) </text>
</g>
<!-- 2&#45;&gt;3 -->
<g id="edge3" class="edge">
<title>2&#45;&gt;3</title>
<path fill="none" stroke="black" d="M99.5,-1160.53C99.5,-1152.94 99.5,-1144.1 99.5,-1135.71"/>
<polygon fill="black" stroke="black" points="103,-1135.85 99.5,-1125.85 96,-1135.85 103,-1135.85"/>
</g>
<!-- 4 -->
<g id="node5" class="node">
<title>4</title>
<polygon fill="#c1ffc1" stroke="none" points="175.5,-1046.5 23.5,-1046.5 23.5,-1004.5 175.5,-1004.5 175.5,-1046.5"/>
<polygon fill="none" stroke="black" points="23.5,-1004.5 23.5,-1046.5 65.5,-1046.5 65.5,-1004.5 23.5,-1004.5"/>
<text text-anchor="start" x="32.12" y="-1027.25" font-family="Linux libertine" font-size="10.00">Block</text>
<text text-anchor="start" x="28.38" y="-1016" font-family="Linux libertine" font-size="10.00">depth:1</text>
<polygon fill="none" stroke="black" points="65.5,-1025.5 65.5,-1046.5 108.5,-1046.5 108.5,-1025.5 65.5,-1025.5"/>
<text text-anchor="start" x="75" y="-1032" font-family="Linux libertine" font-size="10.00">input:</text>
<polygon fill="none" stroke="black" points="108.5,-1025.5 108.5,-1046.5 175.5,-1046.5 175.5,-1025.5 108.5,-1025.5"/>
<text text-anchor="start" x="113.12" y="-1032" font-family="Linux libertine" font-size="10.00">(1, 589, 768) </text>
<polygon fill="none" stroke="black" points="65.5,-1004.5 65.5,-1025.5 108.5,-1025.5 108.5,-1004.5 65.5,-1004.5"/>
<text text-anchor="start" x="70.5" y="-1011" font-family="Linux libertine" font-size="10.00">output: </text>
<polygon fill="none" stroke="black" points="108.5,-1004.5 108.5,-1025.5 175.5,-1025.5 175.5,-1004.5 108.5,-1004.5"/>
<text text-anchor="start" x="113.12" y="-1011" font-family="Linux libertine" font-size="10.00">(1, 589, 768) </text>
</g>
<!-- 3&#45;&gt;4 -->
<g id="edge4" class="edge">
<title>3&#45;&gt;4</title>
<path fill="none" stroke="black" d="M99.5,-1082.53C99.5,-1074.94 99.5,-1066.1 99.5,-1057.71"/>
<polygon fill="black" stroke="black" points="103,-1057.85 99.5,-1047.85 96,-1057.85 103,-1057.85"/>
</g>
<!-- 5 -->
<g id="node6" class="node">
<title>5</title>
<polygon fill="#c1ffc1" stroke="none" points="175.5,-968.5 23.5,-968.5 23.5,-926.5 175.5,-926.5 175.5,-968.5"/>
<polygon fill="none" stroke="black" points="23.5,-926.5 23.5,-968.5 65.5,-968.5 65.5,-926.5 23.5,-926.5"/>
<text text-anchor="start" x="32.12" y="-949.25" font-family="Linux libertine" font-size="10.00">Block</text>
<text text-anchor="start" x="28.38" y="-938" font-family="Linux libertine" font-size="10.00">depth:1</text>
<polygon fill="none" stroke="black" points="65.5,-947.5 65.5,-968.5 108.5,-968.5 108.5,-947.5 65.5,-947.5"/>
<text text-anchor="start" x="75" y="-954" font-family="Linux libertine" font-size="10.00">input:</text>
<polygon fill="none" stroke="black" points="108.5,-947.5 108.5,-968.5 175.5,-968.5 175.5,-947.5 108.5,-947.5"/>
<text text-anchor="start" x="113.12" y="-954" font-family="Linux libertine" font-size="10.00">(1, 589, 768) </text>
<polygon fill="none" stroke="black" points="65.5,-926.5 65.5,-947.5 108.5,-947.5 108.5,-926.5 65.5,-926.5"/>
<text text-anchor="start" x="70.5" y="-933" font-family="Linux libertine" font-size="10.00">output: </text>
<polygon fill="none" stroke="black" points="108.5,-926.5 108.5,-947.5 175.5,-947.5 175.5,-926.5 108.5,-926.5"/>
<text text-anchor="start" x="113.12" y="-933" font-family="Linux libertine" font-size="10.00">(1, 589, 768) </text>
</g>
<!-- 4&#45;&gt;5 -->
<g id="edge5" class="edge">
<title>4&#45;&gt;5</title>
<path fill="none" stroke="black" d="M99.5,-1004.53C99.5,-996.94 99.5,-988.1 99.5,-979.71"/>
<polygon fill="black" stroke="black" points="103,-979.85 99.5,-969.85 96,-979.85 103,-979.85"/>
</g>
<!-- 6 -->
<g id="node7" class="node">
<title>6</title>
<polygon fill="#c1ffc1" stroke="none" points="175.5,-890.5 23.5,-890.5 23.5,-848.5 175.5,-848.5 175.5,-890.5"/>
<polygon fill="none" stroke="black" points="23.5,-848.5 23.5,-890.5 65.5,-890.5 65.5,-848.5 23.5,-848.5"/>
<text text-anchor="start" x="32.12" y="-871.25" font-family="Linux libertine" font-size="10.00">Block</text>
<text text-anchor="start" x="28.38" y="-860" font-family="Linux libertine" font-size="10.00">depth:1</text>
<polygon fill="none" stroke="black" points="65.5,-869.5 65.5,-890.5 108.5,-890.5 108.5,-869.5 65.5,-869.5"/>
<text text-anchor="start" x="75" y="-876" font-family="Linux libertine" font-size="10.00">input:</text>
<polygon fill="none" stroke="black" points="108.5,-869.5 108.5,-890.5 175.5,-890.5 175.5,-869.5 108.5,-869.5"/>
<text text-anchor="start" x="113.12" y="-876" font-family="Linux libertine" font-size="10.00">(1, 589, 768) </text>
<polygon fill="none" stroke="black" points="65.5,-848.5 65.5,-869.5 108.5,-869.5 108.5,-848.5 65.5,-848.5"/>
<text text-anchor="start" x="70.5" y="-855" font-family="Linux libertine" font-size="10.00">output: </text>
<polygon fill="none" stroke="black" points="108.5,-848.5 108.5,-869.5 175.5,-869.5 175.5,-848.5 108.5,-848.5"/>
<text text-anchor="start" x="113.12" y="-855" font-family="Linux libertine" font-size="10.00">(1, 589, 768) </text>
</g>
<!-- 5&#45;&gt;6 -->
<g id="edge6" class="edge">
<title>5&#45;&gt;6</title>
<path fill="none" stroke="black" d="M99.5,-926.53C99.5,-918.94 99.5,-910.1 99.5,-901.71"/>
<polygon fill="black" stroke="black" points="103,-901.85 99.5,-891.85 96,-901.85 103,-901.85"/>
</g>
<!-- 7 -->
<g id="node8" class="node">
<title>7</title>
<polygon fill="#c1ffc1" stroke="none" points="175.5,-812.5 23.5,-812.5 23.5,-770.5 175.5,-770.5 175.5,-812.5"/>
<polygon fill="none" stroke="black" points="23.5,-770.5 23.5,-812.5 65.5,-812.5 65.5,-770.5 23.5,-770.5"/>
<text text-anchor="start" x="32.12" y="-793.25" font-family="Linux libertine" font-size="10.00">Block</text>
<text text-anchor="start" x="28.38" y="-782" font-family="Linux libertine" font-size="10.00">depth:1</text>
<polygon fill="none" stroke="black" points="65.5,-791.5 65.5,-812.5 108.5,-812.5 108.5,-791.5 65.5,-791.5"/>
<text text-anchor="start" x="75" y="-798" font-family="Linux libertine" font-size="10.00">input:</text>
<polygon fill="none" stroke="black" points="108.5,-791.5 108.5,-812.5 175.5,-812.5 175.5,-791.5 108.5,-791.5"/>
<text text-anchor="start" x="113.12" y="-798" font-family="Linux libertine" font-size="10.00">(1, 589, 768) </text>
<polygon fill="none" stroke="black" points="65.5,-770.5 65.5,-791.5 108.5,-791.5 108.5,-770.5 65.5,-770.5"/>
<text text-anchor="start" x="70.5" y="-777" font-family="Linux libertine" font-size="10.00">output: </text>
<polygon fill="none" stroke="black" points="108.5,-770.5 108.5,-791.5 175.5,-791.5 175.5,-770.5 108.5,-770.5"/>
<text text-anchor="start" x="113.12" y="-777" font-family="Linux libertine" font-size="10.00">(1, 589, 768) </text>
</g>
<!-- 6&#45;&gt;7 -->
<g id="edge7" class="edge">
<title>6&#45;&gt;7</title>
<path fill="none" stroke="black" d="M99.5,-848.53C99.5,-840.94 99.5,-832.1 99.5,-823.71"/>
<polygon fill="black" stroke="black" points="103,-823.85 99.5,-813.85 96,-823.85 103,-823.85"/>
</g>
<!-- 8 -->
<g id="node9" class="node">
<title>8</title>
<polygon fill="#c1ffc1" stroke="none" points="175.5,-734.5 23.5,-734.5 23.5,-692.5 175.5,-692.5 175.5,-734.5"/>
<polygon fill="none" stroke="black" points="23.5,-692.5 23.5,-734.5 65.5,-734.5 65.5,-692.5 23.5,-692.5"/>
<text text-anchor="start" x="32.12" y="-715.25" font-family="Linux libertine" font-size="10.00">Block</text>
<text text-anchor="start" x="28.38" y="-704" font-family="Linux libertine" font-size="10.00">depth:1</text>
<polygon fill="none" stroke="black" points="65.5,-713.5 65.5,-734.5 108.5,-734.5 108.5,-713.5 65.5,-713.5"/>
<text text-anchor="start" x="75" y="-720" font-family="Linux libertine" font-size="10.00">input:</text>
<polygon fill="none" stroke="black" points="108.5,-713.5 108.5,-734.5 175.5,-734.5 175.5,-713.5 108.5,-713.5"/>
<text text-anchor="start" x="113.12" y="-720" font-family="Linux libertine" font-size="10.00">(1, 589, 768) </text>
<polygon fill="none" stroke="black" points="65.5,-692.5 65.5,-713.5 108.5,-713.5 108.5,-692.5 65.5,-692.5"/>
<text text-anchor="start" x="70.5" y="-699" font-family="Linux libertine" font-size="10.00">output: </text>
<polygon fill="none" stroke="black" points="108.5,-692.5 108.5,-713.5 175.5,-713.5 175.5,-692.5 108.5,-692.5"/>
<text text-anchor="start" x="113.12" y="-699" font-family="Linux libertine" font-size="10.00">(1, 589, 768) </text>
</g>
<!-- 7&#45;&gt;8 -->
<g id="edge8" class="edge">
<title>7&#45;&gt;8</title>
<path fill="none" stroke="black" d="M99.5,-770.53C99.5,-762.94 99.5,-754.1 99.5,-745.71"/>
<polygon fill="black" stroke="black" points="103,-745.85 99.5,-735.85 96,-745.85 103,-745.85"/>
</g>
<!-- 9 -->
<g id="node10" class="node">
<title>9</title>
<polygon fill="#c1ffc1" stroke="none" points="175.5,-656.5 23.5,-656.5 23.5,-614.5 175.5,-614.5 175.5,-656.5"/>
<polygon fill="none" stroke="black" points="23.5,-614.5 23.5,-656.5 65.5,-656.5 65.5,-614.5 23.5,-614.5"/>
<text text-anchor="start" x="32.12" y="-637.25" font-family="Linux libertine" font-size="10.00">Block</text>
<text text-anchor="start" x="28.38" y="-626" font-family="Linux libertine" font-size="10.00">depth:1</text>
<polygon fill="none" stroke="black" points="65.5,-635.5 65.5,-656.5 108.5,-656.5 108.5,-635.5 65.5,-635.5"/>
<text text-anchor="start" x="75" y="-642" font-family="Linux libertine" font-size="10.00">input:</text>
<polygon fill="none" stroke="black" points="108.5,-635.5 108.5,-656.5 175.5,-656.5 175.5,-635.5 108.5,-635.5"/>
<text text-anchor="start" x="113.12" y="-642" font-family="Linux libertine" font-size="10.00">(1, 589, 768) </text>
<polygon fill="none" stroke="black" points="65.5,-614.5 65.5,-635.5 108.5,-635.5 108.5,-614.5 65.5,-614.5"/>
<text text-anchor="start" x="70.5" y="-621" font-family="Linux libertine" font-size="10.00">output: </text>
<polygon fill="none" stroke="black" points="108.5,-614.5 108.5,-635.5 175.5,-635.5 175.5,-614.5 108.5,-614.5"/>
<text text-anchor="start" x="113.12" y="-621" font-family="Linux libertine" font-size="10.00">(1, 589, 768) </text>
</g>
<!-- 8&#45;&gt;9 -->
<g id="edge9" class="edge">
<title>8&#45;&gt;9</title>
<path fill="none" stroke="black" d="M99.5,-692.53C99.5,-684.94 99.5,-676.1 99.5,-667.71"/>
<polygon fill="black" stroke="black" points="103,-667.85 99.5,-657.85 96,-667.85 103,-667.85"/>
</g>
<!-- 10 -->
<g id="node11" class="node">
<title>10</title>
<polygon fill="#c1ffc1" stroke="none" points="175.5,-578.5 23.5,-578.5 23.5,-536.5 175.5,-536.5 175.5,-578.5"/>
<polygon fill="none" stroke="black" points="23.5,-536.5 23.5,-578.5 65.5,-578.5 65.5,-536.5 23.5,-536.5"/>
<text text-anchor="start" x="32.12" y="-559.25" font-family="Linux libertine" font-size="10.00">Block</text>
<text text-anchor="start" x="28.38" y="-548" font-family="Linux libertine" font-size="10.00">depth:1</text>
<polygon fill="none" stroke="black" points="65.5,-557.5 65.5,-578.5 108.5,-578.5 108.5,-557.5 65.5,-557.5"/>
<text text-anchor="start" x="75" y="-564" font-family="Linux libertine" font-size="10.00">input:</text>
<polygon fill="none" stroke="black" points="108.5,-557.5 108.5,-578.5 175.5,-578.5 175.5,-557.5 108.5,-557.5"/>
<text text-anchor="start" x="113.12" y="-564" font-family="Linux libertine" font-size="10.00">(1, 589, 768) </text>
<polygon fill="none" stroke="black" points="65.5,-536.5 65.5,-557.5 108.5,-557.5 108.5,-536.5 65.5,-536.5"/>
<text text-anchor="start" x="70.5" y="-543" font-family="Linux libertine" font-size="10.00">output: </text>
<polygon fill="none" stroke="black" points="108.5,-536.5 108.5,-557.5 175.5,-557.5 175.5,-536.5 108.5,-536.5"/>
<text text-anchor="start" x="113.12" y="-543" font-family="Linux libertine" font-size="10.00">(1, 589, 768) </text>
</g>
<!-- 9&#45;&gt;10 -->
<g id="edge10" class="edge">
<title>9&#45;&gt;10</title>
<path fill="none" stroke="black" d="M99.5,-614.53C99.5,-606.94 99.5,-598.1 99.5,-589.71"/>
<polygon fill="black" stroke="black" points="103,-589.85 99.5,-579.85 96,-589.85 103,-589.85"/>
</g>
<!-- 11 -->
<g id="node12" class="node">
<title>11</title>
<polygon fill="#c1ffc1" stroke="none" points="175.5,-500.5 23.5,-500.5 23.5,-458.5 175.5,-458.5 175.5,-500.5"/>
<polygon fill="none" stroke="black" points="23.5,-458.5 23.5,-500.5 65.5,-500.5 65.5,-458.5 23.5,-458.5"/>
<text text-anchor="start" x="32.12" y="-481.25" font-family="Linux libertine" font-size="10.00">Block</text>
<text text-anchor="start" x="28.38" y="-470" font-family="Linux libertine" font-size="10.00">depth:1</text>
<polygon fill="none" stroke="black" points="65.5,-479.5 65.5,-500.5 108.5,-500.5 108.5,-479.5 65.5,-479.5"/>
<text text-anchor="start" x="75" y="-486" font-family="Linux libertine" font-size="10.00">input:</text>
<polygon fill="none" stroke="black" points="108.5,-479.5 108.5,-500.5 175.5,-500.5 175.5,-479.5 108.5,-479.5"/>
<text text-anchor="start" x="113.12" y="-486" font-family="Linux libertine" font-size="10.00">(1, 589, 768) </text>
<polygon fill="none" stroke="black" points="65.5,-458.5 65.5,-479.5 108.5,-479.5 108.5,-458.5 65.5,-458.5"/>
<text text-anchor="start" x="70.5" y="-465" font-family="Linux libertine" font-size="10.00">output: </text>
<polygon fill="none" stroke="black" points="108.5,-458.5 108.5,-479.5 175.5,-479.5 175.5,-458.5 108.5,-458.5"/>
<text text-anchor="start" x="113.12" y="-465" font-family="Linux libertine" font-size="10.00">(1, 589, 768) </text>
</g>
<!-- 10&#45;&gt;11 -->
<g id="edge11" class="edge">
<title>10&#45;&gt;11</title>
<path fill="none" stroke="black" d="M99.5,-536.53C99.5,-528.94 99.5,-520.1 99.5,-511.71"/>
<polygon fill="black" stroke="black" points="103,-511.85 99.5,-501.85 96,-511.85 103,-511.85"/>
</g>
<!-- 12 -->
<g id="node13" class="node">
<title>12</title>
<polygon fill="#c1ffc1" stroke="none" points="175.5,-422.5 23.5,-422.5 23.5,-380.5 175.5,-380.5 175.5,-422.5"/>
<polygon fill="none" stroke="black" points="23.5,-380.5 23.5,-422.5 65.5,-422.5 65.5,-380.5 23.5,-380.5"/>
<text text-anchor="start" x="32.12" y="-403.25" font-family="Linux libertine" font-size="10.00">Block</text>
<text text-anchor="start" x="28.38" y="-392" font-family="Linux libertine" font-size="10.00">depth:1</text>
<polygon fill="none" stroke="black" points="65.5,-401.5 65.5,-422.5 108.5,-422.5 108.5,-401.5 65.5,-401.5"/>
<text text-anchor="start" x="75" y="-408" font-family="Linux libertine" font-size="10.00">input:</text>
<polygon fill="none" stroke="black" points="108.5,-401.5 108.5,-422.5 175.5,-422.5 175.5,-401.5 108.5,-401.5"/>
<text text-anchor="start" x="113.12" y="-408" font-family="Linux libertine" font-size="10.00">(1, 589, 768) </text>
<polygon fill="none" stroke="black" points="65.5,-380.5 65.5,-401.5 108.5,-401.5 108.5,-380.5 65.5,-380.5"/>
<text text-anchor="start" x="70.5" y="-387" font-family="Linux libertine" font-size="10.00">output: </text>
<polygon fill="none" stroke="black" points="108.5,-380.5 108.5,-401.5 175.5,-401.5 175.5,-380.5 108.5,-380.5"/>
<text text-anchor="start" x="113.12" y="-387" font-family="Linux libertine" font-size="10.00">(1, 589, 768) </text>
</g>
<!-- 11&#45;&gt;12 -->
<g id="edge12" class="edge">
<title>11&#45;&gt;12</title>
<path fill="none" stroke="black" d="M99.5,-458.53C99.5,-450.94 99.5,-442.1 99.5,-433.71"/>
<polygon fill="black" stroke="black" points="103,-433.85 99.5,-423.85 96,-433.85 103,-433.85"/>
</g>
<!-- 13 -->
<g id="node14" class="node">
<title>13</title>
<polygon fill="#c1ffc1" stroke="none" points="175.5,-344.5 23.5,-344.5 23.5,-302.5 175.5,-302.5 175.5,-344.5"/>
<polygon fill="none" stroke="black" points="23.5,-302.5 23.5,-344.5 65.5,-344.5 65.5,-302.5 23.5,-302.5"/>
<text text-anchor="start" x="32.12" y="-325.25" font-family="Linux libertine" font-size="10.00">Block</text>
<text text-anchor="start" x="28.38" y="-314" font-family="Linux libertine" font-size="10.00">depth:1</text>
<polygon fill="none" stroke="black" points="65.5,-323.5 65.5,-344.5 108.5,-344.5 108.5,-323.5 65.5,-323.5"/>
<text text-anchor="start" x="75" y="-330" font-family="Linux libertine" font-size="10.00">input:</text>
<polygon fill="none" stroke="black" points="108.5,-323.5 108.5,-344.5 175.5,-344.5 175.5,-323.5 108.5,-323.5"/>
<text text-anchor="start" x="113.12" y="-330" font-family="Linux libertine" font-size="10.00">(1, 589, 768) </text>
<polygon fill="none" stroke="black" points="65.5,-302.5 65.5,-323.5 108.5,-323.5 108.5,-302.5 65.5,-302.5"/>
<text text-anchor="start" x="70.5" y="-309" font-family="Linux libertine" font-size="10.00">output: </text>
<polygon fill="none" stroke="black" points="108.5,-302.5 108.5,-323.5 175.5,-323.5 175.5,-302.5 108.5,-302.5"/>
<text text-anchor="start" x="113.12" y="-309" font-family="Linux libertine" font-size="10.00">(1, 589, 768) </text>
</g>
<!-- 12&#45;&gt;13 -->
<g id="edge13" class="edge">
<title>12&#45;&gt;13</title>
<path fill="none" stroke="black" d="M99.5,-380.53C99.5,-372.94 99.5,-364.1 99.5,-355.71"/>
<polygon fill="black" stroke="black" points="103,-355.85 99.5,-345.85 96,-355.85 103,-355.85"/>
</g>
<!-- 14 -->
<g id="node15" class="node">
<title>14</title>
<polygon fill="#c1ffc1" stroke="none" points="175.5,-266.5 23.5,-266.5 23.5,-224.5 175.5,-224.5 175.5,-266.5"/>
<polygon fill="none" stroke="black" points="23.5,-224.5 23.5,-266.5 65.5,-266.5 65.5,-224.5 23.5,-224.5"/>
<text text-anchor="start" x="32.12" y="-247.25" font-family="Linux libertine" font-size="10.00">Block</text>
<text text-anchor="start" x="28.38" y="-236" font-family="Linux libertine" font-size="10.00">depth:1</text>
<polygon fill="none" stroke="black" points="65.5,-245.5 65.5,-266.5 108.5,-266.5 108.5,-245.5 65.5,-245.5"/>
<text text-anchor="start" x="75" y="-252" font-family="Linux libertine" font-size="10.00">input:</text>
<polygon fill="none" stroke="black" points="108.5,-245.5 108.5,-266.5 175.5,-266.5 175.5,-245.5 108.5,-245.5"/>
<text text-anchor="start" x="113.12" y="-252" font-family="Linux libertine" font-size="10.00">(1, 589, 768) </text>
<polygon fill="none" stroke="black" points="65.5,-224.5 65.5,-245.5 108.5,-245.5 108.5,-224.5 65.5,-224.5"/>
<text text-anchor="start" x="70.5" y="-231" font-family="Linux libertine" font-size="10.00">output: </text>
<polygon fill="none" stroke="black" points="108.5,-224.5 108.5,-245.5 175.5,-245.5 175.5,-224.5 108.5,-224.5"/>
<text text-anchor="start" x="113.12" y="-231" font-family="Linux libertine" font-size="10.00">(1, 589, 768) </text>
</g>
<!-- 13&#45;&gt;14 -->
<g id="edge14" class="edge">
<title>13&#45;&gt;14</title>
<path fill="none" stroke="black" d="M99.5,-302.53C99.5,-294.94 99.5,-286.1 99.5,-277.71"/>
<polygon fill="black" stroke="black" points="103,-277.85 99.5,-267.85 96,-277.85 103,-277.85"/>
</g>
<!-- 15 -->
<g id="node16" class="node">
<title>15</title>
<polygon fill="#c1ffc1" stroke="none" points="175.5,-188.5 23.5,-188.5 23.5,-146.5 175.5,-146.5 175.5,-188.5"/>
<polygon fill="none" stroke="black" points="23.5,-146.5 23.5,-188.5 65.5,-188.5 65.5,-146.5 23.5,-146.5"/>
<text text-anchor="start" x="32.12" y="-169.25" font-family="Linux libertine" font-size="10.00">Block</text>
<text text-anchor="start" x="28.38" y="-158" font-family="Linux libertine" font-size="10.00">depth:1</text>
<polygon fill="none" stroke="black" points="65.5,-167.5 65.5,-188.5 108.5,-188.5 108.5,-167.5 65.5,-167.5"/>
<text text-anchor="start" x="75" y="-174" font-family="Linux libertine" font-size="10.00">input:</text>
<polygon fill="none" stroke="black" points="108.5,-167.5 108.5,-188.5 175.5,-188.5 175.5,-167.5 108.5,-167.5"/>
<text text-anchor="start" x="113.12" y="-174" font-family="Linux libertine" font-size="10.00">(1, 589, 768) </text>
<polygon fill="none" stroke="black" points="65.5,-146.5 65.5,-167.5 108.5,-167.5 108.5,-146.5 65.5,-146.5"/>
<text text-anchor="start" x="70.5" y="-153" font-family="Linux libertine" font-size="10.00">output: </text>
<polygon fill="none" stroke="black" points="108.5,-146.5 108.5,-167.5 175.5,-167.5 175.5,-146.5 108.5,-146.5"/>
<text text-anchor="start" x="113.12" y="-153" font-family="Linux libertine" font-size="10.00">(1, 589, 768) </text>
</g>
<!-- 14&#45;&gt;15 -->
<g id="edge15" class="edge">
<title>14&#45;&gt;15</title>
<path fill="none" stroke="black" d="M99.5,-224.53C99.5,-216.94 99.5,-208.1 99.5,-199.71"/>
<polygon fill="black" stroke="black" points="103,-199.85 99.5,-189.85 96,-199.85 103,-199.85"/>
</g>
<!-- 16 -->
<g id="node17" class="node">
<title>16</title>
<polygon fill="#c1ffc1" stroke="none" points="183.5,-110.5 15.5,-110.5 15.5,-68.5 183.5,-68.5 183.5,-110.5"/>
<polygon fill="none" stroke="black" points="15.5,-68.5 15.5,-110.5 73.5,-110.5 73.5,-68.5 15.5,-68.5"/>
<text text-anchor="start" x="20.5" y="-91.25" font-family="Linux libertine" font-size="10.00">LayerNorm</text>
<text text-anchor="start" x="28.38" y="-80" font-family="Linux libertine" font-size="10.00">depth:1</text>
<polygon fill="none" stroke="black" points="73.5,-89.5 73.5,-110.5 116.5,-110.5 116.5,-89.5 73.5,-89.5"/>
<text text-anchor="start" x="83" y="-96" font-family="Linux libertine" font-size="10.00">input:</text>
<polygon fill="none" stroke="black" points="116.5,-89.5 116.5,-110.5 183.5,-110.5 183.5,-89.5 116.5,-89.5"/>
<text text-anchor="start" x="121.12" y="-96" font-family="Linux libertine" font-size="10.00">(1, 589, 768) </text>
<polygon fill="none" stroke="black" points="73.5,-68.5 73.5,-89.5 116.5,-89.5 116.5,-68.5 73.5,-68.5"/>
<text text-anchor="start" x="78.5" y="-75" font-family="Linux libertine" font-size="10.00">output: </text>
<polygon fill="none" stroke="black" points="116.5,-68.5 116.5,-89.5 183.5,-89.5 183.5,-68.5 116.5,-68.5"/>
<text text-anchor="start" x="121.12" y="-75" font-family="Linux libertine" font-size="10.00">(1, 589, 768) </text>
</g>
<!-- 15&#45;&gt;16 -->
<g id="edge16" class="edge">
<title>15&#45;&gt;16</title>
<path fill="none" stroke="black" d="M99.5,-146.53C99.5,-138.94 99.5,-130.1 99.5,-121.71"/>
<polygon fill="black" stroke="black" points="103,-121.85 99.5,-111.85 96,-121.85 103,-121.85"/>
</g>
<!-- 17 -->
<g id="node18" class="node">
<title>17</title>
<polygon fill="lightyellow" stroke="none" points="165.38,-32.5 33.62,-32.5 33.62,0 165.38,0 165.38,-32.5"/>
<polygon fill="none" stroke="black" points="33.62,0 33.62,-32.5 100.62,-32.5 100.62,0 33.62,0"/>
<text text-anchor="start" x="38.62" y="-18" font-family="Linux libertine" font-size="10.00">output&#45;tensor</text>
<text text-anchor="start" x="51" y="-6.75" font-family="Linux libertine" font-size="10.00">depth:0</text>
<polygon fill="none" stroke="black" points="100.62,0 100.62,-32.5 165.38,-32.5 165.38,0 100.62,0"/>
<text text-anchor="start" x="105.62" y="-12.38" font-family="Linux libertine" font-size="10.00">(1, 589, 768)</text>
</g>
<!-- 16&#45;&gt;17 -->
<g id="edge17" class="edge">
<title>16&#45;&gt;17</title>
<path fill="none" stroke="black" d="M99.5,-68.65C99.5,-60.91 99.5,-51.91 99.5,-43.63"/>
<polygon fill="black" stroke="black" points="103,-43.76 99.5,-33.76 96,-43.76 103,-43.76"/>
</g>
</g>
</svg>
