<?xml version="1.0" encoding="UTF-8" standalone="no"?>
<!DOCTYPE svg PUBLIC "-//W3C//DTD SVG 1.1//EN"
 "http://www.w3.org/Graphics/SVG/1.1/DTD/svg11.dtd">
<!-- Generated by graphviz version 10.0.1 (20240210.2158)
 -->
<!-- Title: Messis Pages: 1 -->
<svg width="544pt" height="655pt"
 viewBox="0.00 0.00 543.50 655.00" xmlns="http://www.w3.org/2000/svg" xmlns:xlink="http://www.w3.org/1999/xlink">
<g id="graph0" class="graph" transform="scale(1 1) rotate(0) translate(4 651)">
<title>Messis</title>
<polygon fill="white" stroke="none" points="-4,4 -4,-651 539.5,-651 539.5,4 -4,4"/>
<!-- 0 -->
<g id="node1" class="node">
<title>0</title>
<polygon fill="lightyellow" stroke="none" points="257.12,-647 108.88,-647 108.88,-614.5 257.12,-614.5 257.12,-647"/>
<polygon fill="none" stroke="black" points="108.88,-614.5 108.88,-647 169.88,-647 169.88,-614.5 108.88,-614.5"/>
<text text-anchor="start" x="113.88" y="-632.5" font-family="Linux libertine" font-size="10.00">input&#45;tensor</text>

<polygon fill="none" stroke="black" points="169.88,-614.5 169.88,-647 257.12,-647 257.12,-614.5 169.88,-614.5"/>
<text text-anchor="start" x="174.88" y="-626.88" font-family="Linux libertine" font-size="10.00">(1, 6, 3, 224, 224)</text>
</g>
<!-- 1 -->
<g id="node2" class="node">
<title>1</title>
<polygon fill="#c1ffc1" stroke="none" points="299.5,-578.5 66.5,-578.5 66.5,-536.5 299.5,-536.5 299.5,-578.5"/>
<polygon fill="none" stroke="black" points="66.5,-536.5 66.5,-578.5 166.5,-578.5 166.5,-536.5 66.5,-536.5"/>
<text text-anchor="start" x="71.12" y="-559.25" font-family="Linux libertine" font-size="10.00">TemporalViTEncoder</text>

<polygon fill="none" stroke="black" points="166.5,-557.5 166.5,-578.5 209.5,-578.5 209.5,-557.5 166.5,-557.5"/>
<text text-anchor="start" x="176" y="-564" font-family="Linux libertine" font-size="10.00">input:</text>
<polygon fill="none" stroke="black" points="209.5,-557.5 209.5,-578.5 299.5,-578.5 299.5,-557.5 209.5,-557.5"/>
<text text-anchor="start" x="214.38" y="-564" font-family="Linux libertine" font-size="10.00">(1, 6, 3, 224, 224) </text>
<polygon fill="none" stroke="black" points="166.5,-536.5 166.5,-557.5 209.5,-557.5 209.5,-536.5 166.5,-536.5"/>
<text text-anchor="start" x="171.5" y="-543" font-family="Linux libertine" font-size="10.00">output: </text>
<polygon fill="none" stroke="black" points="209.5,-536.5 209.5,-557.5 299.5,-557.5 299.5,-536.5 209.5,-536.5"/>
<text text-anchor="start" x="225.62" y="-543" font-family="Linux libertine" font-size="10.00">(1, 589, 768) </text>
</g>
<!-- 0&#45;&gt;1 -->
<g id="edge1" class="edge">
<title>0&#45;&gt;1</title>
<path fill="none" stroke="black" d="M183,-614.64C183,-607.39 183,-598.43 183,-589.81"/>
<polygon fill="black" stroke="black" points="186.5,-589.97 183,-579.97 179.5,-589.97 186.5,-589.97"/>
</g>
<!-- 2 -->
<g id="node3" class="node">
<title>2</title>
<polygon fill="#c1ffc1" stroke="none" points="351,-500.5 15,-500.5 15,-458.5 351,-458.5 351,-500.5"/>
<polygon fill="none" stroke="black" points="15,-458.5 15,-500.5 214,-500.5 214,-458.5 15,-458.5"/>
<text text-anchor="start" x="19.62" y="-481.25" font-family="Linux libertine" font-size="10.00">ConvTransformerTokensToEmbeddingNeck</text>

<polygon fill="none" stroke="black" points="214,-479.5 214,-500.5 257,-500.5 257,-479.5 214,-479.5"/>
<text text-anchor="start" x="223.5" y="-486" font-family="Linux libertine" font-size="10.00">input:</text>
<polygon fill="none" stroke="black" points="257,-479.5 257,-500.5 351,-500.5 351,-479.5 257,-479.5"/>
<text text-anchor="start" x="275.12" y="-486" font-family="Linux libertine" font-size="10.00">(1, 589, 768) </text>
<polygon fill="none" stroke="black" points="214,-458.5 214,-479.5 257,-479.5 257,-458.5 214,-458.5"/>
<text text-anchor="start" x="219" y="-465" font-family="Linux libertine" font-size="10.00">output: </text>
<polygon fill="none" stroke="black" points="257,-458.5 257,-479.5 351,-479.5 351,-458.5 257,-458.5"/>
<text text-anchor="start" x="261.62" y="-465" font-family="Linux libertine" font-size="10.00">(1, 2304, 224, 224) </text>
</g>
<!-- 1&#45;&gt;2 -->
<g id="edge2" class="edge">
<title>1&#45;&gt;2</title>
<path fill="none" stroke="black" d="M183,-536.53C183,-528.94 183,-520.1 183,-511.71"/>
<polygon fill="black" stroke="black" points="186.5,-511.85 183,-501.85 179.5,-511.85 186.5,-511.85"/>
</g>
<!-- 3 -->
<g id="node4" class="node">
<title>3</title>
<polygon fill="#c1ffc1" stroke="none" points="338,-422.5 28,-422.5 28,-380.5 338,-380.5 338,-422.5"/>
<polygon fill="none" stroke="black" points="28,-380.5 28,-422.5 134,-422.5 134,-380.5 28,-380.5"/>
<text text-anchor="start" x="33" y="-403.25" font-family="Linux libertine" font-size="10.00">HierarchicalFCNHead</text>

<polygon fill="none" stroke="black" points="134,-401.5 134,-422.5 177,-422.5 177,-401.5 134,-401.5"/>
<text text-anchor="start" x="143.5" y="-408" font-family="Linux libertine" font-size="10.00">input:</text>
<polygon fill="none" stroke="black" points="177,-401.5 177,-422.5 338,-422.5 338,-401.5 177,-401.5"/>
<text text-anchor="start" x="215.12" y="-408" font-family="Linux libertine" font-size="10.00">(1, 2304, 224, 224) </text>
<polygon fill="none" stroke="black" points="134,-380.5 134,-401.5 177,-401.5 177,-380.5 134,-380.5"/>
<text text-anchor="start" x="139" y="-387" font-family="Linux libertine" font-size="10.00">output: </text>
<polygon fill="none" stroke="black" points="177,-380.5 177,-401.5 338,-401.5 338,-380.5 177,-380.5"/>
<text text-anchor="start" x="181.75" y="-387" font-family="Linux libertine" font-size="10.00">(1, 6, 224, 224), (1, 256, 224, 224) </text>
</g>
<!-- 2&#45;&gt;3 -->
<g id="edge3" class="edge">
<title>2&#45;&gt;3</title>
<path fill="none" stroke="black" d="M183,-458.53C183,-450.94 183,-442.1 183,-433.71"/>
<polygon fill="black" stroke="black" points="186.5,-433.85 183,-423.85 179.5,-433.85 186.5,-433.85"/>
</g>
<!-- 4 -->
<g id="node5" class="node">
<title>4</title>
<polygon fill="#c1ffc1" stroke="none" points="340.5,-344.5 25.5,-344.5 25.5,-302.5 340.5,-302.5 340.5,-344.5"/>
<polygon fill="none" stroke="black" points="25.5,-302.5 25.5,-344.5 131.5,-344.5 131.5,-302.5 25.5,-302.5"/>
<text text-anchor="start" x="30.5" y="-325.25" font-family="Linux libertine" font-size="10.00">HierarchicalFCNHead</text>

<polygon fill="none" stroke="black" points="131.5,-323.5 131.5,-344.5 174.5,-344.5 174.5,-323.5 131.5,-323.5"/>
<text text-anchor="start" x="141" y="-330" font-family="Linux libertine" font-size="10.00">input:</text>
<polygon fill="none" stroke="black" points="174.5,-323.5 174.5,-344.5 340.5,-344.5 340.5,-323.5 174.5,-323.5"/>
<text text-anchor="start" x="217.75" y="-330" font-family="Linux libertine" font-size="10.00">(1, 256, 224, 224) </text>
<polygon fill="none" stroke="black" points="131.5,-302.5 131.5,-323.5 174.5,-323.5 174.5,-302.5 131.5,-302.5"/>
<text text-anchor="start" x="136.5" y="-309" font-family="Linux libertine" font-size="10.00">output: </text>
<polygon fill="none" stroke="black" points="174.5,-302.5 174.5,-323.5 340.5,-323.5 340.5,-302.5 174.5,-302.5"/>
<text text-anchor="start" x="179.12" y="-309" font-family="Linux libertine" font-size="10.00">(1, 17, 224, 224), (1, 256, 224, 224) </text>
</g>
<!-- 3&#45;&gt;4 -->
<g id="edge5" class="edge">
<title>3&#45;&gt;4</title>
<path fill="none" stroke="black" d="M183,-380.53C183,-372.94 183,-364.1 183,-355.71"/>
<polygon fill="black" stroke="black" points="186.5,-355.85 183,-345.85 179.5,-355.85 186.5,-355.85"/>
</g>
<!-- 6 -->
<g id="node7" class="node">
<title>6</title>
<polygon fill="aliceblue" stroke="none" points="318,-188.5 0,-188.5 0,-146.5 318,-146.5 318,-188.5"/>
<polygon fill="none" stroke="black" points="0,-146.5 0,-188.5 42,-188.5 42,-146.5 0,-146.5"/>
<text text-anchor="start" x="14.25" y="-169.25" font-family="Linux libertine" font-size="10.00">cat</text>

<polygon fill="none" stroke="black" points="42,-167.5 42,-188.5 85,-188.5 85,-167.5 42,-167.5"/>
<text text-anchor="start" x="51.5" y="-174" font-family="Linux libertine" font-size="10.00">input:</text>
<polygon fill="none" stroke="black" points="85,-167.5 85,-188.5 318,-188.5 318,-167.5 85,-167.5"/>
<text text-anchor="start" x="89.75" y="-174" font-family="Linux libertine" font-size="10.00">(1, 6, 224, 224), (1, 17, 224, 224), (1, 49, 224, 224) </text>
<polygon fill="none" stroke="black" points="42,-146.5 42,-167.5 85,-167.5 85,-146.5 42,-146.5"/>
<text text-anchor="start" x="47" y="-153" font-family="Linux libertine" font-size="10.00">output: </text>
<polygon fill="none" stroke="black" points="85,-146.5 85,-167.5 318,-167.5 318,-146.5 85,-146.5"/>
<text text-anchor="start" x="164.38" y="-153" font-family="Linux libertine" font-size="10.00">(1, 72, 224, 224) </text>
</g>
<!-- 3&#45;&gt;6 -->
<g id="edge4" class="edge">
<title>3&#45;&gt;6</title>
<path fill="none" stroke="black" d="M66.7,-380.57C47.28,-372.35 29.19,-360.77 16,-344.5 -5.97,-317.39 9,-301.34 7,-266.5 5.93,-247.86 -3.68,-239.81 7,-224.5 16.21,-211.29 28.91,-201.18 43.08,-193.46"/>
<polygon fill="black" stroke="black" points="44.34,-196.74 51.74,-189.15 41.23,-190.47 44.34,-196.74"/>
</g>
<!-- 9 -->
<g id="node10" class="node">
<title>9</title>
<polygon fill="lightyellow" stroke="none" points="501.5,-339.75 358.5,-339.75 358.5,-307.25 501.5,-307.25 501.5,-339.75"/>
<polygon fill="none" stroke="black" points="358.5,-307.25 358.5,-339.75 425.5,-339.75 425.5,-307.25 358.5,-307.25"/>
<text text-anchor="start" x="363.5" y="-325.25" font-family="Linux libertine" font-size="10.00">output&#45;tensor</text>

<polygon fill="none" stroke="black" points="425.5,-307.25 425.5,-339.75 501.5,-339.75 501.5,-307.25 425.5,-307.25"/>
<text text-anchor="start" x="430.5" y="-319.62" font-family="Linux libertine" font-size="10.00">(1, 6, 224, 224)</text>
</g>
<!-- 3&#45;&gt;9 -->
<g id="edge11" class="edge">
<title>3&#45;&gt;9</title>
<path fill="none" stroke="black" d="M247.9,-380.53C285.75,-368.88 333.17,-354.29 370.13,-342.92"/>
<polygon fill="black" stroke="black" points="370.78,-346.38 379.31,-340.1 368.72,-339.69 370.78,-346.38"/>
</g>
<!-- 5 -->
<g id="node6" class="node">
<title>5</title>
<polygon fill="#c1ffc1" stroke="none" points="535.5,-266.5 220.5,-266.5 220.5,-224.5 535.5,-224.5 535.5,-266.5"/>
<polygon fill="none" stroke="black" points="220.5,-224.5 220.5,-266.5 326.5,-266.5 326.5,-224.5 220.5,-224.5"/>
<text text-anchor="start" x="225.5" y="-247.25" font-family="Linux libertine" font-size="10.00">HierarchicalFCNHead</text>

<polygon fill="none" stroke="black" points="326.5,-245.5 326.5,-266.5 369.5,-266.5 369.5,-245.5 326.5,-245.5"/>
<text text-anchor="start" x="336" y="-252" font-family="Linux libertine" font-size="10.00">input:</text>
<polygon fill="none" stroke="black" points="369.5,-245.5 369.5,-266.5 535.5,-266.5 535.5,-245.5 369.5,-245.5"/>
<text text-anchor="start" x="412.75" y="-252" font-family="Linux libertine" font-size="10.00">(1, 256, 224, 224) </text>
<polygon fill="none" stroke="black" points="326.5,-224.5 326.5,-245.5 369.5,-245.5 369.5,-224.5 326.5,-224.5"/>
<text text-anchor="start" x="331.5" y="-231" font-family="Linux libertine" font-size="10.00">output: </text>
<polygon fill="none" stroke="black" points="369.5,-224.5 369.5,-245.5 535.5,-245.5 535.5,-224.5 369.5,-224.5"/>
<text text-anchor="start" x="374.12" y="-231" font-family="Linux libertine" font-size="10.00">(1, 49, 224, 224), (1, 256, 224, 224) </text>
</g>
<!-- 4&#45;&gt;5 -->
<g id="edge7" class="edge">
<title>4&#45;&gt;5</title>
<path fill="none" stroke="black" d="M234.23,-302.53C259.33,-292.75 289.74,-280.9 316.12,-270.62"/>
<polygon fill="black" stroke="black" points="317.31,-273.91 325.36,-267.02 314.77,-267.39 317.31,-273.91"/>
</g>
<!-- 4&#45;&gt;6 -->
<g id="edge6" class="edge">
<title>4&#45;&gt;6</title>
<path fill="none" stroke="black" d="M181.83,-302.86C180.45,-283 177.72,-251.45 173,-224.5 171.56,-216.25 169.56,-207.41 167.53,-199.26"/>
<polygon fill="black" stroke="black" points="170.97,-198.57 165.07,-189.77 164.19,-200.33 170.97,-198.57"/>
</g>
<!-- 10 -->
<g id="node11" class="node">
<title>10</title>
<polygon fill="lightyellow" stroke="none" points="164.12,-261.75 15.88,-261.75 15.88,-229.25 164.12,-229.25 164.12,-261.75"/>
<polygon fill="none" stroke="black" points="15.88,-229.25 15.88,-261.75 82.88,-261.75 82.88,-229.25 15.88,-229.25"/>
<text text-anchor="start" x="20.88" y="-247.25" font-family="Linux libertine" font-size="10.00">output&#45;tensor</text>

<polygon fill="none" stroke="black" points="82.88,-229.25 82.88,-261.75 164.12,-261.75 164.12,-229.25 82.88,-229.25"/>
<text text-anchor="start" x="87.88" y="-241.62" font-family="Linux libertine" font-size="10.00">(1, 17, 224, 224)</text>
</g>
<!-- 4&#45;&gt;10 -->
<g id="edge12" class="edge">
<title>4&#45;&gt;10</title>
<path fill="none" stroke="black" d="M158.57,-302.53C145.8,-292.1 130.14,-279.3 117.01,-268.57"/>
<polygon fill="black" stroke="black" points="119.52,-266.11 109.57,-262.49 115.1,-271.53 119.52,-266.11"/>
</g>
<!-- 5&#45;&gt;6 -->
<g id="edge8" class="edge">
<title>5&#45;&gt;6</title>
<path fill="none" stroke="black" d="M320.46,-224.53C291.9,-214.62 257.21,-202.58 227.31,-192.21"/>
<polygon fill="black" stroke="black" points="228.56,-188.93 217.97,-188.96 226.26,-195.55 228.56,-188.93"/>
</g>
<!-- 11 -->
<g id="node12" class="node">
<title>11</title>
<polygon fill="lightyellow" stroke="none" points="484.12,-183.75 335.88,-183.75 335.88,-151.25 484.12,-151.25 484.12,-183.75"/>
<polygon fill="none" stroke="black" points="335.88,-151.25 335.88,-183.75 402.88,-183.75 402.88,-151.25 335.88,-151.25"/>
<text text-anchor="start" x="340.88" y="-169.25" font-family="Linux libertine" font-size="10.00">output&#45;tensor</text>

<polygon fill="none" stroke="black" points="402.88,-151.25 402.88,-183.75 484.12,-183.75 484.12,-151.25 402.88,-151.25"/>
<text text-anchor="start" x="407.88" y="-163.62" font-family="Linux libertine" font-size="10.00">(1, 49, 224, 224)</text>
</g>
<!-- 5&#45;&gt;11 -->
<g id="edge13" class="edge">
<title>5&#45;&gt;11</title>
<path fill="none" stroke="black" d="M386.41,-224.53C390.34,-215.2 395.06,-203.98 399.25,-194.04"/>
<polygon fill="black" stroke="black" points="402.43,-195.5 403.08,-184.93 395.98,-192.79 402.43,-195.5"/>
</g>
<!-- 7 -->
<g id="node8" class="node">
<title>7</title>
<polygon fill="#c1ffc1" stroke="none" points="275.5,-110.5 42.5,-110.5 42.5,-68.5 275.5,-68.5 275.5,-110.5"/>
<polygon fill="none" stroke="black" points="42.5,-68.5 42.5,-110.5 148.5,-110.5 148.5,-68.5 42.5,-68.5"/>
<text text-anchor="start" x="47.12" y="-91.25" font-family="Linux libertine" font-size="10.00">LabelRefinementHead</text>

<polygon fill="none" stroke="black" points="148.5,-89.5 148.5,-110.5 191.5,-110.5 191.5,-89.5 148.5,-89.5"/>
<text text-anchor="start" x="158" y="-96" font-family="Linux libertine" font-size="10.00">input:</text>
<polygon fill="none" stroke="black" points="191.5,-89.5 191.5,-110.5 275.5,-110.5 275.5,-89.5 191.5,-89.5"/>
<text text-anchor="start" x="196.38" y="-96" font-family="Linux libertine" font-size="10.00">(1, 72, 224, 224) </text>
<polygon fill="none" stroke="black" points="148.5,-68.5 148.5,-89.5 191.5,-89.5 191.5,-68.5 148.5,-68.5"/>
<text text-anchor="start" x="153.5" y="-75" font-family="Linux libertine" font-size="10.00">output: </text>
<polygon fill="none" stroke="black" points="191.5,-68.5 191.5,-89.5 275.5,-89.5 275.5,-68.5 191.5,-68.5"/>
<text text-anchor="start" x="196.38" y="-75" font-family="Linux libertine" font-size="10.00">(1, 49, 224, 224) </text>
</g>
<!-- 6&#45;&gt;7 -->
<g id="edge9" class="edge">
<title>6&#45;&gt;7</title>
<path fill="none" stroke="black" d="M159,-146.53C159,-138.94 159,-130.1 159,-121.71"/>
<polygon fill="black" stroke="black" points="162.5,-121.85 159,-111.85 155.5,-121.85 162.5,-121.85"/>
</g>
<!-- 8 -->
<g id="node9" class="node">
<title>8</title>
<polygon fill="lightyellow" stroke="none" points="233.12,-32.5 84.88,-32.5 84.88,0 233.12,0 233.12,-32.5"/>
<polygon fill="none" stroke="black" points="84.88,0 84.88,-32.5 151.88,-32.5 151.88,0 84.88,0"/>
<text text-anchor="start" x="89.88" y="-18" font-family="Linux libertine" font-size="10.00">output&#45;tensor</text>

<polygon fill="none" stroke="black" points="151.88,0 151.88,-32.5 233.12,-32.5 233.12,0 151.88,0"/>
<text text-anchor="start" x="156.88" y="-12.38" font-family="Linux libertine" font-size="10.00">(1, 49, 224, 224)</text>
</g>
<!-- 7&#45;&gt;8 -->
<g id="edge10" class="edge">
<title>7&#45;&gt;8</title>
<path fill="none" stroke="black" d="M159,-68.65C159,-60.91 159,-51.91 159,-43.63"/>
<polygon fill="black" stroke="black" points="162.5,-43.76 159,-33.76 155.5,-43.76 162.5,-43.76"/>
</g>
</g>
</svg>
