<?xml version="1.0" encoding="UTF-8" standalone="no"?>
<!DOCTYPE svg PUBLIC "-//W3C//DTD SVG 1.1//EN"
 "http://www.w3.org/Graphics/SVG/1.1/DTD/svg11.dtd">
<!-- Generated by graphviz version 10.0.1 (20240210.2158)
 -->
<!-- Title: Messis Pages: 1 -->
<svg width="202pt" height="864pt"
 viewBox="0.00 0.00 202.40 864.00" xmlns="http://www.w3.org/2000/svg" xmlns:xlink="http://www.w3.org/1999/xlink">
<g id="graph0" class="graph" transform="scale(0.760898 0.760898) rotate(0) translate(4 1131.5)">
<title>Messis</title>
<polygon fill="white" stroke="none" points="-4,4 -4,-1131.5 262,-1131.5 262,4 -4,4"/>
<g id="clust1" class="cluster">
<title>cluster_2</title>
<polygon fill="none" stroke="black" stroke-dasharray="5,2" points="13,-460.75 13,-775 245,-775 245,-460.75 13,-460.75"/>
<text text-anchor="middle" x="45.75" y="-759.6" font-family="Times,serif" font-size="12.00">Sequential</text>
</g>
<g id="clust2" class="cluster">
<title>cluster_3</title>
<polygon fill="none" stroke="black" stroke-dasharray="5,2" points="8,-138.5 8,-452.75 250,-452.75 250,-138.5 8,-138.5"/>
<text text-anchor="middle" x="40.75" y="-437.35" font-family="Times,serif" font-size="12.00">Sequential</text>
</g>
<!-- 0 -->
<g id="node1" class="node">
<title>0</title>
<polygon fill="lightyellow" stroke="none" points="197.5,-1127.5 60.5,-1127.5 60.5,-1095 197.5,-1095 197.5,-1127.5"/>
<polygon fill="none" stroke="black" points="60.5,-1095 60.5,-1127.5 121.5,-1127.5 121.5,-1095 60.5,-1095"/>
<text text-anchor="start" x="65.5" y="-1113" font-family="Linux libertine" font-size="10.00">input&#45;tensor</text>
<text text-anchor="start" x="74.88" y="-1101.75" font-family="Linux libertine" font-size="10.00">depth:0</text>
<polygon fill="none" stroke="black" points="121.5,-1095 121.5,-1127.5 197.5,-1127.5 197.5,-1095 121.5,-1095"/>
<text text-anchor="start" x="126.5" y="-1107.38" font-family="Linux libertine" font-size="10.00">(1, 1, 589, 768)</text>
</g>
<!-- 1 -->
<g id="node2" class="node">
<title>1</title>
<polygon fill="aliceblue" stroke="none" points="221.5,-1059 36.5,-1059 36.5,-1017 221.5,-1017 221.5,-1059"/>
<polygon fill="none" stroke="black" points="36.5,-1017 36.5,-1059 99.5,-1059 99.5,-1017 36.5,-1017"/>
<text text-anchor="start" x="41.38" y="-1039.75" font-family="Linux libertine" font-size="10.00">__getitem__</text>
<text text-anchor="start" x="51.88" y="-1028.5" font-family="Linux libertine" font-size="10.00">depth:1</text>
<polygon fill="none" stroke="black" points="99.5,-1038 99.5,-1059 142.5,-1059 142.5,-1038 99.5,-1038"/>
<text text-anchor="start" x="109" y="-1044.5" font-family="Linux libertine" font-size="10.00">input:</text>
<polygon fill="none" stroke="black" points="142.5,-1038 142.5,-1059 221.5,-1059 221.5,-1038 142.5,-1038"/>
<text text-anchor="start" x="147.5" y="-1044.5" font-family="Linux libertine" font-size="10.00">(1, 1, 589, 768) </text>
<polygon fill="none" stroke="black" points="99.5,-1017 99.5,-1038 142.5,-1038 142.5,-1017 99.5,-1017"/>
<text text-anchor="start" x="104.5" y="-1023.5" font-family="Linux libertine" font-size="10.00">output: </text>
<polygon fill="none" stroke="black" points="142.5,-1017 142.5,-1038 221.5,-1038 221.5,-1017 142.5,-1017"/>
<text text-anchor="start" x="153.12" y="-1023.5" font-family="Linux libertine" font-size="10.00">(1, 589, 768) </text>
</g>
<!-- 0&#45;&gt;1 -->
<g id="edge1" class="edge">
<title>0&#45;&gt;1</title>
<path fill="none" stroke="black" d="M129,-1095.14C129,-1087.89 129,-1078.93 129,-1070.31"/>
<polygon fill="black" stroke="black" points="132.5,-1070.47 129,-1060.47 125.5,-1070.47 132.5,-1070.47"/>
</g>
<!-- 2 -->
<g id="node3" class="node">
<title>2</title>
<polygon fill="aliceblue" stroke="none" points="215.5,-981 42.5,-981 42.5,-939 215.5,-939 215.5,-981"/>
<polygon fill="none" stroke="black" points="42.5,-939 42.5,-981 105.5,-981 105.5,-939 42.5,-939"/>
<text text-anchor="start" x="47.38" y="-961.75" font-family="Linux libertine" font-size="10.00">__getitem__</text>
<text text-anchor="start" x="57.88" y="-950.5" font-family="Linux libertine" font-size="10.00">depth:1</text>
<polygon fill="none" stroke="black" points="105.5,-960 105.5,-981 148.5,-981 148.5,-960 105.5,-960"/>
<text text-anchor="start" x="115" y="-966.5" font-family="Linux libertine" font-size="10.00">input:</text>
<polygon fill="none" stroke="black" points="148.5,-960 148.5,-981 215.5,-981 215.5,-960 148.5,-960"/>
<text text-anchor="start" x="153.12" y="-966.5" font-family="Linux libertine" font-size="10.00">(1, 589, 768) </text>
<polygon fill="none" stroke="black" points="105.5,-939 105.5,-960 148.5,-960 148.5,-939 105.5,-939"/>
<text text-anchor="start" x="110.5" y="-945.5" font-family="Linux libertine" font-size="10.00">output: </text>
<polygon fill="none" stroke="black" points="148.5,-939 148.5,-960 215.5,-960 215.5,-939 148.5,-939"/>
<text text-anchor="start" x="153.12" y="-945.5" font-family="Linux libertine" font-size="10.00">(1, 588, 768) </text>
</g>
<!-- 1&#45;&gt;2 -->
<g id="edge2" class="edge">
<title>1&#45;&gt;2</title>
<path fill="none" stroke="black" d="M129,-1017.03C129,-1009.44 129,-1000.6 129,-992.21"/>
<polygon fill="black" stroke="black" points="132.5,-992.35 129,-982.35 125.5,-992.35 132.5,-992.35"/>
</g>
<!-- 3 -->
<g id="node4" class="node">
<title>3</title>
<polygon fill="aliceblue" stroke="none" points="206.5,-903 51.5,-903 51.5,-861 206.5,-861 206.5,-903"/>
<polygon fill="none" stroke="black" points="51.5,-861 51.5,-903 96.5,-903 96.5,-861 51.5,-861"/>
<text text-anchor="start" x="56.38" y="-883.75" font-family="Linux libertine" font-size="10.00">permute</text>
<text text-anchor="start" x="57.88" y="-872.5" font-family="Linux libertine" font-size="10.00">depth:1</text>
<polygon fill="none" stroke="black" points="96.5,-882 96.5,-903 139.5,-903 139.5,-882 96.5,-882"/>
<text text-anchor="start" x="106" y="-888.5" font-family="Linux libertine" font-size="10.00">input:</text>
<polygon fill="none" stroke="black" points="139.5,-882 139.5,-903 206.5,-903 206.5,-882 139.5,-882"/>
<text text-anchor="start" x="144.12" y="-888.5" font-family="Linux libertine" font-size="10.00">(1, 588, 768) </text>
<polygon fill="none" stroke="black" points="96.5,-861 96.5,-882 139.5,-882 139.5,-861 96.5,-861"/>
<text text-anchor="start" x="101.5" y="-867.5" font-family="Linux libertine" font-size="10.00">output: </text>
<polygon fill="none" stroke="black" points="139.5,-861 139.5,-882 206.5,-882 206.5,-861 139.5,-861"/>
<text text-anchor="start" x="144.12" y="-867.5" font-family="Linux libertine" font-size="10.00">(1, 768, 588) </text>
</g>
<!-- 2&#45;&gt;3 -->
<g id="edge3" class="edge">
<title>2&#45;&gt;3</title>
<path fill="none" stroke="black" d="M129,-939.03C129,-931.44 129,-922.6 129,-914.21"/>
<polygon fill="black" stroke="black" points="132.5,-914.35 129,-904.35 125.5,-914.35 132.5,-914.35"/>
</g>
<!-- 4 -->
<g id="node5" class="node">
<title>4</title>
<polygon fill="aliceblue" stroke="none" points="214.5,-825 43.5,-825 43.5,-783 214.5,-783 214.5,-825"/>
<polygon fill="none" stroke="black" points="43.5,-783 43.5,-825 87.5,-825 87.5,-783 43.5,-783"/>
<text text-anchor="start" x="48.25" y="-805.75" font-family="Linux libertine" font-size="10.00">reshape</text>
<text text-anchor="start" x="49.38" y="-794.5" font-family="Linux libertine" font-size="10.00">depth:1</text>
<polygon fill="none" stroke="black" points="87.5,-804 87.5,-825 130.5,-825 130.5,-804 87.5,-804"/>
<text text-anchor="start" x="97" y="-810.5" font-family="Linux libertine" font-size="10.00">input:</text>
<polygon fill="none" stroke="black" points="130.5,-804 130.5,-825 214.5,-825 214.5,-804 130.5,-804"/>
<text text-anchor="start" x="143.62" y="-810.5" font-family="Linux libertine" font-size="10.00">(1, 768, 588) </text>
<polygon fill="none" stroke="black" points="87.5,-783 87.5,-804 130.5,-804 130.5,-783 87.5,-783"/>
<text text-anchor="start" x="92.5" y="-789.5" font-family="Linux libertine" font-size="10.00">output: </text>
<polygon fill="none" stroke="black" points="130.5,-783 130.5,-804 214.5,-804 214.5,-783 130.5,-783"/>
<text text-anchor="start" x="135.38" y="-789.5" font-family="Linux libertine" font-size="10.00">(1, 2304, 14, 14) </text>
</g>
<!-- 3&#45;&gt;4 -->
<g id="edge4" class="edge">
<title>3&#45;&gt;4</title>
<path fill="none" stroke="black" d="M129,-861.03C129,-853.44 129,-844.6 129,-836.21"/>
<polygon fill="black" stroke="black" points="132.5,-836.35 129,-826.35 125.5,-836.35 132.5,-836.35"/>
</g>
<!-- 5 -->
<g id="node6" class="node">
<title>5</title>
<polygon fill="#c1ffc1" stroke="none" points="237,-744.75 21,-744.75 21,-702.75 237,-702.75 237,-744.75"/>
<polygon fill="none" stroke="black" points="21,-702.75 21,-744.75 110,-744.75 110,-702.75 21,-702.75"/>
<text text-anchor="start" x="25.75" y="-725.5" font-family="Linux libertine" font-size="10.00">ConvTranspose2d</text>
<text text-anchor="start" x="49.38" y="-714.25" font-family="Linux libertine" font-size="10.00">depth:2</text>
<polygon fill="none" stroke="black" points="110,-723.75 110,-744.75 153,-744.75 153,-723.75 110,-723.75"/>
<text text-anchor="start" x="119.5" y="-730.25" font-family="Linux libertine" font-size="10.00">input:</text>
<polygon fill="none" stroke="black" points="153,-723.75 153,-744.75 237,-744.75 237,-723.75 153,-723.75"/>
<text text-anchor="start" x="157.88" y="-730.25" font-family="Linux libertine" font-size="10.00">(1, 2304, 14, 14) </text>
<polygon fill="none" stroke="black" points="110,-702.75 110,-723.75 153,-723.75 153,-702.75 110,-702.75"/>
<text text-anchor="start" x="115" y="-709.25" font-family="Linux libertine" font-size="10.00">output: </text>
<polygon fill="none" stroke="black" points="153,-702.75 153,-723.75 237,-723.75 237,-702.75 153,-702.75"/>
<text text-anchor="start" x="157.88" y="-709.25" font-family="Linux libertine" font-size="10.00">(1, 2304, 28, 28) </text>
</g>
<!-- 4&#45;&gt;5 -->
<g id="edge5" class="edge">
<title>4&#45;&gt;5</title>
<path fill="none" stroke="black" d="M129,-783.25C129,-774.91 129,-765 129,-755.73"/>
<polygon fill="black" stroke="black" points="132.5,-756 129,-746 125.5,-756 132.5,-756"/>
</g>
<!-- 6 -->
<g id="node7" class="node">
<title>6</title>
<polygon fill="#c1ffc1" stroke="none" points="214.5,-666.75 43.5,-666.75 43.5,-624.75 214.5,-624.75 214.5,-666.75"/>
<polygon fill="none" stroke="black" points="43.5,-624.75 43.5,-666.75 87.5,-666.75 87.5,-624.75 43.5,-624.75"/>
<text text-anchor="start" x="48.25" y="-647.5" font-family="Linux libertine" font-size="10.00">Norm2d</text>
<text text-anchor="start" x="49.38" y="-636.25" font-family="Linux libertine" font-size="10.00">depth:2</text>
<polygon fill="none" stroke="black" points="87.5,-645.75 87.5,-666.75 130.5,-666.75 130.5,-645.75 87.5,-645.75"/>
<text text-anchor="start" x="97" y="-652.25" font-family="Linux libertine" font-size="10.00">input:</text>
<polygon fill="none" stroke="black" points="130.5,-645.75 130.5,-666.75 214.5,-666.75 214.5,-645.75 130.5,-645.75"/>
<text text-anchor="start" x="135.38" y="-652.25" font-family="Linux libertine" font-size="10.00">(1, 2304, 28, 28) </text>
<polygon fill="none" stroke="black" points="87.5,-624.75 87.5,-645.75 130.5,-645.75 130.5,-624.75 87.5,-624.75"/>
<text text-anchor="start" x="92.5" y="-631.25" font-family="Linux libertine" font-size="10.00">output: </text>
<polygon fill="none" stroke="black" points="130.5,-624.75 130.5,-645.75 214.5,-645.75 214.5,-624.75 130.5,-624.75"/>
<text text-anchor="start" x="135.38" y="-631.25" font-family="Linux libertine" font-size="10.00">(1, 2304, 28, 28) </text>
</g>
<!-- 5&#45;&gt;6 -->
<g id="edge6" class="edge">
<title>5&#45;&gt;6</title>
<path fill="none" stroke="black" d="M129,-702.78C129,-695.19 129,-686.35 129,-677.96"/>
<polygon fill="black" stroke="black" points="132.5,-678.1 129,-668.1 125.5,-678.1 132.5,-678.1"/>
</g>
<!-- 7 -->
<g id="node8" class="node">
<title>7</title>
<polygon fill="#c1ffc1" stroke="none" points="213.5,-588.75 44.5,-588.75 44.5,-546.75 213.5,-546.75 213.5,-588.75"/>
<polygon fill="none" stroke="black" points="44.5,-546.75 44.5,-588.75 86.5,-588.75 86.5,-546.75 44.5,-546.75"/>
<text text-anchor="start" x="52" y="-569.5" font-family="Linux libertine" font-size="10.00">GELU</text>
<text text-anchor="start" x="49.38" y="-558.25" font-family="Linux libertine" font-size="10.00">depth:2</text>
<polygon fill="none" stroke="black" points="86.5,-567.75 86.5,-588.75 129.5,-588.75 129.5,-567.75 86.5,-567.75"/>
<text text-anchor="start" x="96" y="-574.25" font-family="Linux libertine" font-size="10.00">input:</text>
<polygon fill="none" stroke="black" points="129.5,-567.75 129.5,-588.75 213.5,-588.75 213.5,-567.75 129.5,-567.75"/>
<text text-anchor="start" x="134.38" y="-574.25" font-family="Linux libertine" font-size="10.00">(1, 2304, 28, 28) </text>
<polygon fill="none" stroke="black" points="86.5,-546.75 86.5,-567.75 129.5,-567.75 129.5,-546.75 86.5,-546.75"/>
<text text-anchor="start" x="91.5" y="-553.25" font-family="Linux libertine" font-size="10.00">output: </text>
<polygon fill="none" stroke="black" points="129.5,-546.75 129.5,-567.75 213.5,-567.75 213.5,-546.75 129.5,-546.75"/>
<text text-anchor="start" x="134.38" y="-553.25" font-family="Linux libertine" font-size="10.00">(1, 2304, 28, 28) </text>
</g>
<!-- 6&#45;&gt;7 -->
<g id="edge7" class="edge">
<title>6&#45;&gt;7</title>
<path fill="none" stroke="black" d="M129,-624.78C129,-617.19 129,-608.35 129,-599.96"/>
<polygon fill="black" stroke="black" points="132.5,-600.1 129,-590.1 125.5,-600.1 132.5,-600.1"/>
</g>
<!-- 8 -->
<g id="node9" class="node">
<title>8</title>
<polygon fill="#c1ffc1" stroke="none" points="237,-510.75 21,-510.75 21,-468.75 237,-468.75 237,-510.75"/>
<polygon fill="none" stroke="black" points="21,-468.75 21,-510.75 110,-510.75 110,-468.75 21,-468.75"/>
<text text-anchor="start" x="25.75" y="-491.5" font-family="Linux libertine" font-size="10.00">ConvTranspose2d</text>
<text text-anchor="start" x="49.38" y="-480.25" font-family="Linux libertine" font-size="10.00">depth:2</text>
<polygon fill="none" stroke="black" points="110,-489.75 110,-510.75 153,-510.75 153,-489.75 110,-489.75"/>
<text text-anchor="start" x="119.5" y="-496.25" font-family="Linux libertine" font-size="10.00">input:</text>
<polygon fill="none" stroke="black" points="153,-489.75 153,-510.75 237,-510.75 237,-489.75 153,-489.75"/>
<text text-anchor="start" x="157.88" y="-496.25" font-family="Linux libertine" font-size="10.00">(1, 2304, 28, 28) </text>
<polygon fill="none" stroke="black" points="110,-468.75 110,-489.75 153,-489.75 153,-468.75 110,-468.75"/>
<text text-anchor="start" x="115" y="-475.25" font-family="Linux libertine" font-size="10.00">output: </text>
<polygon fill="none" stroke="black" points="153,-468.75 153,-489.75 237,-489.75 237,-468.75 153,-468.75"/>
<text text-anchor="start" x="157.88" y="-475.25" font-family="Linux libertine" font-size="10.00">(1, 2304, 56, 56) </text>
</g>
<!-- 7&#45;&gt;8 -->
<g id="edge8" class="edge">
<title>7&#45;&gt;8</title>
<path fill="none" stroke="black" d="M129,-546.78C129,-539.19 129,-530.35 129,-521.96"/>
<polygon fill="black" stroke="black" points="132.5,-522.1 129,-512.1 125.5,-522.1 132.5,-522.1"/>
</g>
<!-- 9 -->
<g id="node10" class="node">
<title>9</title>
<polygon fill="#c1ffc1" stroke="none" points="242,-422.5 16,-422.5 16,-380.5 242,-380.5 242,-422.5"/>
<polygon fill="none" stroke="black" points="16,-380.5 16,-422.5 105,-422.5 105,-380.5 16,-380.5"/>
<text text-anchor="start" x="20.75" y="-403.25" font-family="Linux libertine" font-size="10.00">ConvTranspose2d</text>
<text text-anchor="start" x="44.38" y="-392" font-family="Linux libertine" font-size="10.00">depth:2</text>
<polygon fill="none" stroke="black" points="105,-401.5 105,-422.5 148,-422.5 148,-401.5 105,-401.5"/>
<text text-anchor="start" x="114.5" y="-408" font-family="Linux libertine" font-size="10.00">input:</text>
<polygon fill="none" stroke="black" points="148,-401.5 148,-422.5 242,-422.5 242,-401.5 148,-401.5"/>
<text text-anchor="start" x="157.88" y="-408" font-family="Linux libertine" font-size="10.00">(1, 2304, 56, 56) </text>
<polygon fill="none" stroke="black" points="105,-380.5 105,-401.5 148,-401.5 148,-380.5 105,-380.5"/>
<text text-anchor="start" x="110" y="-387" font-family="Linux libertine" font-size="10.00">output: </text>
<polygon fill="none" stroke="black" points="148,-380.5 148,-401.5 242,-401.5 242,-380.5 148,-380.5"/>
<text text-anchor="start" x="152.62" y="-387" font-family="Linux libertine" font-size="10.00">(1, 2304, 112, 112) </text>
</g>
<!-- 8&#45;&gt;9 -->
<g id="edge9" class="edge">
<title>8&#45;&gt;9</title>
<path fill="none" stroke="black" d="M129,-469.18C129,-458.67 129,-445.46 129,-433.58"/>
<polygon fill="black" stroke="black" points="132.5,-433.81 129,-423.81 125.5,-433.81 132.5,-433.81"/>
</g>
<!-- 10 -->
<g id="node11" class="node">
<title>10</title>
<polygon fill="#c1ffc1" stroke="none" points="219.5,-344.5 38.5,-344.5 38.5,-302.5 219.5,-302.5 219.5,-344.5"/>
<polygon fill="none" stroke="black" points="38.5,-302.5 38.5,-344.5 82.5,-344.5 82.5,-302.5 38.5,-302.5"/>
<text text-anchor="start" x="43.25" y="-325.25" font-family="Linux libertine" font-size="10.00">Norm2d</text>
<text text-anchor="start" x="44.38" y="-314" font-family="Linux libertine" font-size="10.00">depth:2</text>
<polygon fill="none" stroke="black" points="82.5,-323.5 82.5,-344.5 125.5,-344.5 125.5,-323.5 82.5,-323.5"/>
<text text-anchor="start" x="92" y="-330" font-family="Linux libertine" font-size="10.00">input:</text>
<polygon fill="none" stroke="black" points="125.5,-323.5 125.5,-344.5 219.5,-344.5 219.5,-323.5 125.5,-323.5"/>
<text text-anchor="start" x="130.12" y="-330" font-family="Linux libertine" font-size="10.00">(1, 2304, 112, 112) </text>
<polygon fill="none" stroke="black" points="82.5,-302.5 82.5,-323.5 125.5,-323.5 125.5,-302.5 82.5,-302.5"/>
<text text-anchor="start" x="87.5" y="-309" font-family="Linux libertine" font-size="10.00">output: </text>
<polygon fill="none" stroke="black" points="125.5,-302.5 125.5,-323.5 219.5,-323.5 219.5,-302.5 125.5,-302.5"/>
<text text-anchor="start" x="130.12" y="-309" font-family="Linux libertine" font-size="10.00">(1, 2304, 112, 112) </text>
</g>
<!-- 9&#45;&gt;10 -->
<g id="edge10" class="edge">
<title>9&#45;&gt;10</title>
<path fill="none" stroke="black" d="M129,-380.53C129,-372.94 129,-364.1 129,-355.71"/>
<polygon fill="black" stroke="black" points="132.5,-355.85 129,-345.85 125.5,-355.85 132.5,-355.85"/>
</g>
<!-- 11 -->
<g id="node12" class="node">
<title>11</title>
<polygon fill="#c1ffc1" stroke="none" points="218.5,-266.5 39.5,-266.5 39.5,-224.5 218.5,-224.5 218.5,-266.5"/>
<polygon fill="none" stroke="black" points="39.5,-224.5 39.5,-266.5 81.5,-266.5 81.5,-224.5 39.5,-224.5"/>
<text text-anchor="start" x="47" y="-247.25" font-family="Linux libertine" font-size="10.00">GELU</text>
<text text-anchor="start" x="44.38" y="-236" font-family="Linux libertine" font-size="10.00">depth:2</text>
<polygon fill="none" stroke="black" points="81.5,-245.5 81.5,-266.5 124.5,-266.5 124.5,-245.5 81.5,-245.5"/>
<text text-anchor="start" x="91" y="-252" font-family="Linux libertine" font-size="10.00">input:</text>
<polygon fill="none" stroke="black" points="124.5,-245.5 124.5,-266.5 218.5,-266.5 218.5,-245.5 124.5,-245.5"/>
<text text-anchor="start" x="129.12" y="-252" font-family="Linux libertine" font-size="10.00">(1, 2304, 112, 112) </text>
<polygon fill="none" stroke="black" points="81.5,-224.5 81.5,-245.5 124.5,-245.5 124.5,-224.5 81.5,-224.5"/>
<text text-anchor="start" x="86.5" y="-231" font-family="Linux libertine" font-size="10.00">output: </text>
<polygon fill="none" stroke="black" points="124.5,-224.5 124.5,-245.5 218.5,-245.5 218.5,-224.5 124.5,-224.5"/>
<text text-anchor="start" x="129.12" y="-231" font-family="Linux libertine" font-size="10.00">(1, 2304, 112, 112) </text>
</g>
<!-- 10&#45;&gt;11 -->
<g id="edge11" class="edge">
<title>10&#45;&gt;11</title>
<path fill="none" stroke="black" d="M129,-302.53C129,-294.94 129,-286.1 129,-277.71"/>
<polygon fill="black" stroke="black" points="132.5,-277.85 129,-267.85 125.5,-277.85 132.5,-277.85"/>
</g>
<!-- 12 -->
<g id="node13" class="node">
<title>12</title>
<polygon fill="#c1ffc1" stroke="none" points="242,-188.5 16,-188.5 16,-146.5 242,-146.5 242,-188.5"/>
<polygon fill="none" stroke="black" points="16,-146.5 16,-188.5 105,-188.5 105,-146.5 16,-146.5"/>
<text text-anchor="start" x="20.75" y="-169.25" font-family="Linux libertine" font-size="10.00">ConvTranspose2d</text>
<text text-anchor="start" x="44.38" y="-158" font-family="Linux libertine" font-size="10.00">depth:2</text>
<polygon fill="none" stroke="black" points="105,-167.5 105,-188.5 148,-188.5 148,-167.5 105,-167.5"/>
<text text-anchor="start" x="114.5" y="-174" font-family="Linux libertine" font-size="10.00">input:</text>
<polygon fill="none" stroke="black" points="148,-167.5 148,-188.5 242,-188.5 242,-167.5 148,-167.5"/>
<text text-anchor="start" x="152.62" y="-174" font-family="Linux libertine" font-size="10.00">(1, 2304, 112, 112) </text>
<polygon fill="none" stroke="black" points="105,-146.5 105,-167.5 148,-167.5 148,-146.5 105,-146.5"/>
<text text-anchor="start" x="110" y="-153" font-family="Linux libertine" font-size="10.00">output: </text>
<polygon fill="none" stroke="black" points="148,-146.5 148,-167.5 242,-167.5 242,-146.5 148,-146.5"/>
<text text-anchor="start" x="152.62" y="-153" font-family="Linux libertine" font-size="10.00">(1, 2304, 224, 224) </text>
</g>
<!-- 11&#45;&gt;12 -->
<g id="edge12" class="edge">
<title>11&#45;&gt;12</title>
<path fill="none" stroke="black" d="M129,-224.53C129,-216.94 129,-208.1 129,-199.71"/>
<polygon fill="black" stroke="black" points="132.5,-199.85 129,-189.85 125.5,-199.85 132.5,-199.85"/>
</g>
<!-- 13 -->
<g id="node14" class="node">
<title>13</title>
<polygon fill="aliceblue" stroke="none" points="219.5,-110.5 38.5,-110.5 38.5,-68.5 219.5,-68.5 219.5,-110.5"/>
<polygon fill="none" stroke="black" points="38.5,-68.5 38.5,-110.5 82.5,-110.5 82.5,-68.5 38.5,-68.5"/>
<text text-anchor="start" x="43.25" y="-91.25" font-family="Linux libertine" font-size="10.00">reshape</text>
<text text-anchor="start" x="44.38" y="-80" font-family="Linux libertine" font-size="10.00">depth:1</text>
<polygon fill="none" stroke="black" points="82.5,-89.5 82.5,-110.5 125.5,-110.5 125.5,-89.5 82.5,-89.5"/>
<text text-anchor="start" x="92" y="-96" font-family="Linux libertine" font-size="10.00">input:</text>
<polygon fill="none" stroke="black" points="125.5,-89.5 125.5,-110.5 219.5,-110.5 219.5,-89.5 125.5,-89.5"/>
<text text-anchor="start" x="130.12" y="-96" font-family="Linux libertine" font-size="10.00">(1, 2304, 224, 224) </text>
<polygon fill="none" stroke="black" points="82.5,-68.5 82.5,-89.5 125.5,-89.5 125.5,-68.5 82.5,-68.5"/>
<text text-anchor="start" x="87.5" y="-75" font-family="Linux libertine" font-size="10.00">output: </text>
<polygon fill="none" stroke="black" points="125.5,-68.5 125.5,-89.5 219.5,-89.5 219.5,-68.5 125.5,-68.5"/>
<text text-anchor="start" x="130.12" y="-75" font-family="Linux libertine" font-size="10.00">(1, 2304, 224, 224) </text>
</g>
<!-- 12&#45;&gt;13 -->
<g id="edge13" class="edge">
<title>12&#45;&gt;13</title>
<path fill="none" stroke="black" d="M129,-146.53C129,-138.94 129,-130.1 129,-121.71"/>
<polygon fill="black" stroke="black" points="132.5,-121.85 129,-111.85 125.5,-121.85 132.5,-121.85"/>
</g>
<!-- 14 -->
<g id="node15" class="node">
<title>14</title>
<polygon fill="lightyellow" stroke="none" points="208.38,-32.5 49.62,-32.5 49.62,0 208.38,0 208.38,-32.5"/>
<polygon fill="none" stroke="black" points="49.62,0 49.62,-32.5 116.62,-32.5 116.62,0 49.62,0"/>
<text text-anchor="start" x="54.62" y="-18" font-family="Linux libertine" font-size="10.00">output&#45;tensor</text>
<text text-anchor="start" x="67" y="-6.75" font-family="Linux libertine" font-size="10.00">depth:0</text>
<polygon fill="none" stroke="black" points="116.62,0 116.62,-32.5 208.38,-32.5 208.38,0 116.62,0"/>
<text text-anchor="start" x="121.62" y="-12.38" font-family="Linux libertine" font-size="10.00">(1, 2304, 224, 224)</text>
</g>
<!-- 13&#45;&gt;14 -->
<g id="edge14" class="edge">
<title>13&#45;&gt;14</title>
<path fill="none" stroke="black" d="M129,-68.65C129,-60.91 129,-51.91 129,-43.63"/>
<polygon fill="black" stroke="black" points="132.5,-43.76 129,-33.76 125.5,-43.76 132.5,-43.76"/>
</g>
</g>
</svg>
